<?xml version="1.0" encoding="UTF-8"?>
<svg width="703px" height="162px" viewBox="0 0 703 162" version="1.1" xmlns="http://www.w3.org/2000/svg" xmlns:xlink="http://www.w3.org/1999/xlink">
    <!-- Generator: Sketch 59.1 (86144) - https://sketch.com -->
    <title>Group 2</title>
    <desc>Created with Sketch.</desc>
    <g id="Page-1" stroke="none" stroke-width="1" fill="none" fill-rule="evenodd">
        <g id="Artboard" transform="translate(-2047.000000, -2148.000000)">
            <g id="Group-2" transform="translate(2039.000000, 2146.000000)">
                <g id="Group">
                    <path d="M63,8 C90.6142375,8 113,30.3857625 113,58 C113,85.6142375 90.6142375,108 63,108 C55.8890442,108 49.1247972,106.515563 43.0002359,103.839666 L43,143 C43,151.284271 36.2842712,158 28,158 C19.7157288,158 13,151.284271 13,143 L13,23 C13,14.7157288 19.7157288,8 28,8 C32.776129,8 37.0308955,10.2322181 39.7779403,13.710295 C46.7157749,10.0630445 54.6169625,8 63,8 Z" id="Combined-Shape" fill="#4B158E" style="mix-blend-mode: overlay;" transform="translate(63.000000, 83.000000) rotate(190.000000) translate(-63.000000, -83.000000) "></path>
                    <path d="M148,8 C175.614237,8 198,30.3857625 198,58 C198,85.6142375 175.614237,108 148,108 C140.889044,108 134.124797,106.515563 128.000236,103.839666 L128,143 C128,151.284271 121.284271,158 113,158 C104.715729,158 98,151.284271 98,143 L98,23 C98,14.7157288 104.715729,8 113,8 C117.776129,8 122.030895,10.2322181 124.77794,13.710295 C131.715775,10.0630445 139.616963,8 148,8 Z" id="Combined-Shape" fill="#19E7EB" style="mix-blend-mode: overlay;" transform="translate(148.000000, 83.000000) rotate(10.000000) translate(-148.000000, -83.000000) "></path>
                </g>
                <path d="M301.51,83.95 L301.502149,82.429406 C301.391648,72.0944385 300.033594,61.2332813 292.38,53.37 C287.21,47.98 279.4,45.01 270.49,45.01 L240.13,45.01 L240.13,123 L270.49,123 C279.4,123 287.21,120.03 292.38,114.64 C300.41,106.39 301.51,94.73 301.51,83.95 Z M287.098161,82.7632377 L287.098161,85.1377084 C287.071964,92.0968727 286.69,100.64 281.49,105.84 C278.85,108.48 275,110.24 270.49,110.24 L254.32,110.24 L254.32,57.77 L270.49,57.77 C275,57.77 278.85,59.53 281.49,62.17 C286.69,67.37 287.071964,75.8148 287.098161,82.7632377 L287.098161,82.7632377 Z M361.50125,94.84 C361.72125,87.69 360.73125,81.2 356.55125,74.93 C351.82125,67.78 344.12125,64.37 335.65125,64.37 C327.84125,64.37 321.68125,67.23 317.39125,71.63 C311.89125,77.24 309.14125,85.38 309.14125,94.51 C309.14125,103.86 312.22125,111.89 317.94125,117.39 C322.45125,121.68 328.17125,124.43 335.98125,124.43 C343.24125,124.43 350.39125,122.12 355.23125,116.4 C357.43125,113.76 359.74125,109.25 360.07125,105.84 L346.87125,105.84 C346.32125,107.93 345.33125,109.47 344.12125,110.68 C342.14125,112.66 339.72125,113.43 335.76125,113.43 C332.02125,113.43 329.27125,111.78 327.29125,109.91 C324.54125,107.27 323.00125,103.09 323.11125,98.69 L361.39125,98.69 L361.392971,98.3992262 C361.406943,97.1033745 361.50125,94.84 361.50125,94.84 Z M347.75125,88.68 L323.00125,88.68 C323.107019,85.0838462 323.924697,82.5047041 325.747651,80.0624676 L325.97125,79.77 C327.95125,77.13 331.36125,75.37 335.54125,75.37 C339.50125,75.37 342.36125,76.69 344.23125,78.67 C346.43125,81.09 347.64125,84.39 347.75125,88.68 Z M420.0625,65.8 L405.8725,65.8 L392.3425,106.06 L378.0425,65.8 L363.5225,65.8 L384.7525,123 L399.3825,123 L420.0625,65.8 Z M471.36375,105.29 C471.36375,96.27 464.76375,90.55 455.74375,89.12 L453.70391,88.8059378 C449.685928,88.2008889 448.014417,88.042 443.53375,87.47 L443.129841,87.4080702 C440.154317,86.9193762 436.93375,85.6430435 436.93375,81.75 C436.93375,78.78 438.91375,76.69 441.33375,75.7 C443.42375,74.82 445.29375,74.82 447.27375,74.82 C450.13375,74.82 453.10375,75.81 454.75375,77.46 C456.07375,78.89 457.06375,80.65 457.06375,82.85 L470.15375,82.85 C470.15375,78.67 468.17375,74.38 465.09375,71.08 C460.91375,66.57 453.98375,64.37 447.16375,64.37 C440.01375,64.37 433.96375,66.46 429.78375,70.09 C426.37375,73.06 423.95375,77.13 423.95375,82.96 C423.95375,90.22 429.23375,96.6 437.04375,98.25 C442.10375,99.35 447.82375,99.68 452.88375,100.45 C456.40375,101 458.60375,103.2 458.60375,106.5 C458.60375,112.673538 451.778699,113.728289 447.158665,113.759281 L446.94375,113.76 C442.98375,113.76 440.45375,112.99 438.25375,111.23 C436.49375,109.8 435.17375,107.05 435.17375,104.52 L422.30375,104.52 C422.30375,109.91 425.05375,114.64 428.35375,117.83 C433.08375,122.34 439.57375,124.43 446.83375,124.43 C454.64375,124.43 461.79375,122.45 466.41375,117.83 C469.38375,114.86 471.36375,110.79 471.36375,105.29 Z M538.835,68 C538.835,52.27 527.835,45.01 512.875,45.01 L485.815,45.01 L485.815,123 L491.535,123 L491.535,90.99 L512.875,90.99 C527.835,90.99 538.835,83.73 538.835,68 Z M532.895,68 C532.895,80.21 524.315,85.49 512.875,85.49 L491.535,85.49 L491.535,50.51 L512.875,50.51 C524.315,50.51 532.895,55.79 532.895,68 Z M592.33625,122.89 L592.33625,67.89 L586.83625,67.89 L586.83625,95.39 L586.830541,96.1024445 C586.64353,107.731736 581.83565,118.93 568.57625,118.93 C558.56625,118.93 554.38625,113.43 554.38625,103.86 L554.38625,67.89 L548.88625,67.89 L548.88625,104.19 C548.88625,116.51 555.59625,124.32 568.24625,124.32 C575.94625,124.32 583.75625,119.92 586.83625,112.88 L587.49625,122.89 L592.33625,122.89 Z M651.6675,107.71 C651.6675,101 646.8275,93.96 636.4875,92.53 L626.0375,91.1 C617.6775,90 615.3675,86.48 615.3675,81.86 C615.3675,78.89 616.9075,76.25 619.6575,74.27 C622.0775,72.51 625.2675,71.74 629.5575,71.74 C635.2775,71.74 639.5675,73.61 642.0975,76.58 C643.8575,78.67 644.6275,81.42 644.8475,83.18 L650.3475,83.18 C650.2375,79.66 648.6975,76.03 646.1675,73.06 C642.4275,68.66 636.1575,66.57 629.5575,66.57 C623.8375,66.57 618.4475,68.11 614.4875,71.74 C611.6275,74.38 609.7575,78.01 609.7575,82.41 C609.7575,85.93 610.8575,88.79 612.8375,91.1 C615.9175,94.62 620.7575,96.05 625.2675,96.6 L635.9375,98.03 C642.5375,98.91 646.0575,103.09 646.0575,108.04 C646.0575,111.23 645.0675,113.1 643.0875,115.08 C640.3375,117.83 635.8275,119.15 630.1075,119.15 C624.8275,119.15 620.3175,117.83 617.1275,114.75 C614.8175,112.44 613.3875,109.58 613.0575,106.28 L607.4475,106.28 C607.6675,110.79 608.9875,113.87 612.0675,117.39 C616.2475,122.12 622.6275,124.43 630.1075,124.43 C637.3675,124.43 643.9675,122.23 647.9275,117.83 C650.3475,115.08 651.6675,111.78 651.6675,107.71 Z M710.44875,123 L704.94875,123 L704.94875,87.03 C704.94875,77.46 700.76875,71.74 690.75875,71.74 C677.22875,71.74 672.49875,83.62 672.49875,95.5 L672.49875,123 L666.99875,123 L666.99875,43.58 L672.49875,43.58 L672.49875,78.12 C675.57875,71.08 683.38875,66.57 691.08875,66.57 C703.73875,66.57 710.44875,74.38 710.44875,86.7 L710.44875,123 Z" id="DevsPush" fill="#343A40" fill-rule="nonzero"></path>
            </g>
        </g>
    </g>
</svg>